<?xml version="1.0" encoding="UTF-8"?>
<svg id="_レイヤー_1" data-name="レイヤー 1" xmlns="http://www.w3.org/2000/svg" viewBox="0 0 500 500">
  <defs>
    <style>
      .cls-1 {
        fill: #dd5510;
      }

      .cls-2, .cls-3 {
        fill: #4a2c14;
      }

      .cls-4 {
        fill: #de5510;
      }

      .cls-3 {
        stroke: #4a2c14;
        stroke-miterlimit: 10;
        stroke-width: .25px;
      }
    </style>
  </defs>
  <g>
    <path class="cls-4" d="M106.4,276.63c-1.17-5.03-10.26-47.24,9.3-67.39.23-.25,24.54-25.3,47.67-3.44,9.16,8.66,12.03,19.71,8.08,31.12-3.91,11.31-13.45,19.85-20.88,21.8,4.1,4.35,15.2,17.44,13.08,29.72-1.15,6.69-6.04,12-14.52,15.8-4.21,1.88-8.07,2.69-11.6,2.69-14.2,0-23.49-13.53-27.91-22.61l.72-1.44c6.33,13,19.42,27.67,37.91,19.39,7.79-3.49,12.26-8.26,13.28-14.2,2.34-13.57-13.73-29.12-13.89-29.27l-1.71-1.64,2.36-.21c6.82-.62,17.17-9.29,21.13-20.73,3.65-10.56.98-20.8-7.53-28.85-9.03-8.53-19.24-10.59-30.36-6.12-8.41,3.38-14.22,9.43-14.28,9.49-17.15,17.67-11.24,53.5-9.22,63.32"/>
    <path class="cls-4" d="M118.21,197.34c1.98-6.47,6.49-12.12,12.4-15.44,3.06-1.72,6.66-2.77,10.11-1.65,2.84.92,5.11,3.59,4.67,6.71-.42,2.93-3.92,4.75-6.38,2.85-.55-.42-1.44-.08-1.76.46-.39.66-.09,1.34.46,1.76,2.87,2.21,7.27.99,9.18-1.89,2.24-3.38.92-8.16-2.11-10.57-7.16-5.7-16.94-.19-22.26,5.43-3.12,3.3-5.46,7.3-6.79,11.65-.49,1.59,2,2.27,2.48.68h0Z"/>
    <path class="cls-4" d="M104.27,196.56c-2.35-7.69-8.08-14.68-15.51-17.94-3.9-1.71-8.45-2.22-12.28-.01-3.38,1.95-5.48,6.23-4.06,10.04.74,1.98,2.26,3.43,4.26,4.09,1.84.61,4.04.41,5.61-.8.55-.42.84-1.11.46-1.76-.32-.54-1.21-.89-1.76-.46-2.02,1.56-5.15.6-6.08-1.76-1.2-3.01.75-6.13,3.45-7.44,3.15-1.52,6.89-.79,9.9.69,3.08,1.51,5.81,3.69,8.08,6.27,2.48,2.82,4.35,6.17,5.45,9.76.48,1.58,2.97.91,2.48-.68h0Z"/>
    <path class="cls-1" d="M113.24,225.08c3.9,11.65,3.74,24.81,2.92,33.81-.69,7.51-2.13,14.76-2.88,16.98,0,.04,0,.09-.02.13h-.01s-.03.07-.04.11h0s-.03.07-.05.14c-.06.14-.11.29-.16.44-2.41,6.91-9.21,22.98-21.88,28.46-2.87,1.25-5.88,1.87-8.98,1.87-3.72,0-7.59-.89-11.58-2.68-8.48-3.8-13.37-9.11-14.52-15.8-2.12-12.29,8.98-25.37,13.08-29.72-7.43-1.95-16.96-10.49-20.88-21.8-3.95-11.41-1.08-22.46,8.08-31.11,23.13-21.86,47.45,3.2,47.68,3.45,2.97,3.05,4.95,5.53,6.9,9.89l-1.96.88c-1.83-4.07-3.69-6.4-6.49-9.28-.06-.07-5.88-6.11-14.29-9.49-11.11-4.47-21.32-2.41-30.36,6.12-8.5,8.04-11.18,18.29-7.53,28.84,3.96,11.45,14.32,20.11,21.14,20.73l2.36.21-1.71,1.64c-.17.16-16.24,15.72-13.9,29.28,1.03,5.93,5.49,10.71,13.29,14.19,6.74,3.02,13.08,3.3,18.82.8,12.01-5.2,18.53-20.9,20.78-27.41.05-.15.01-.04.24-.56,1.01-3.07,6.33-27.85.46-47.69-.03-.12-.04-.17-.04-.17,0,0,.05.14.09.24l1.46-2.5Z"/>
  </g>
  <g>
    <path class="cls-3" d="M189.47,218.81c-.03-.27-.11-.53-.22-.76-.02-.05-.04-.1-.04-.17,0-.14.12-.21.34-.21.27,0,.62.1,1.03.31.41.21.62.46.62.76l-.14,9.03c.55-.53,1.05-1.06,1.49-1.61.45-.55.85-1.09,1.22-1.61.09-.16.2-.34.33-.55s.2-.4.22-.58c.05-.18.11-.27.21-.27.14,0,.3.1.48.31.18.21.34.42.46.65.13.23.19.4.19.51,0,.16-.05.29-.14.38-.64.78-1.32,1.53-2.04,2.27s-1.54,1.49-2.45,2.27c-.02.87-.07,1.72-.14,2.56-.07.84-.17,1.64-.31,2.42,1.53,1.97,2.71,3.63,3.52,4.98.81,1.35,1.22,2.15,1.22,2.4,0,.27-.16.53-.48.76-.16.14-.32.21-.48.21-.2,0-.41-.19-.62-.59-.55-1.12-1.13-2.21-1.75-3.26-.62-1.05-1.21-1.98-1.79-2.78-.41,1.6-.96,3.02-1.63,4.26-.68,1.24-1.37,2.27-2.08,3.11-.71.83-1.33,1.47-1.87,1.91-.54.43-.88.65-1.01.65-.16,0-.24-.08-.24-.24,0-.25.16-.55.48-.89,1.92-2.27,3.32-4.65,4.21-7.14.88-2.49,1.33-5.25,1.36-8.28l.1-9.99c0-.25-.02-.52-.05-.79ZM187.02,231.84c-.27.1-.47.15-.58.15-.23,0-.4-.07-.5-.22-.1-.15-.18-.33-.22-.53-.11-1.03-.26-2.04-.45-3.02s-.42-2-.72-3.06c-.02-.09-.04-.16-.05-.22-.01-.06-.02-.12-.02-.19,0-.25.19-.41.58-.48.07-.02.16-.04.27-.04.32,0,.53.18.62.55.32,1.03.6,2.06.84,3.07.24,1.02.44,2.04.6,3.07.02.07.03.17.03.31,0,.3-.14.5-.41.6ZM199.28,244.18v.1c0,.27-.13.41-.38.41-.07,0-.22-.04-.45-.12-.23-.08-.44-.21-.64-.38-.19-.17-.29-.38-.29-.64v-.17c.02-.16.03-.31.03-.45v-.89c0-.16-.01-.34-.03-.55l-.76-17.31c-.02-.32-.07-.62-.14-.91-.07-.29-.16-.54-.27-.77-.07-.14-.1-.25-.1-.34,0-.14.09-.21.27-.21.16,0,.39.03.69.1.3.07.7.19,1.2.38l12.05-.75h.2c.46,0,.82.14,1.08.41.26.27.39.51.39.72,0,.14-.03.25-.1.34-.07.09-.12.19-.14.31l-1.13,17.51c.5.53.75.9.75,1.13,0,.18-.23.3-.69.34l-11.64.34.07,1.37ZM198.42,223.82l.31,7.73,4.57-.24.04-7.76-4.91.27ZM198.8,232.92l.38,8.52,4.09-.1.03-8.65-4.5.24ZM204.91,232.61l-.07,8.65,4.39-.14.45-8.79-4.77.27ZM204.98,223.44l-.07,7.79,4.84-.27.38-7.83-5.15.31Z"/>
    <path class="cls-3" d="M238.15,240.3c1.44,1.08,3,1.99,4.67,2.75,1.67.76,3.54,1.4,5.6,1.92.25.07.38.16.38.27s-.09.29-.26.51c-.17.23-.37.44-.6.62-.23.18-.45.27-.65.27-1.21-.37-2.33-.76-3.35-1.19-1.02-.42-2.16-1-3.42-1.73-1.26-.73-2.57-1.65-3.91-2.76-1.35-1.11-2.66-2.43-3.91-3.97-.43,1.19-1.06,2.26-1.89,3.19-.82.94-1.75,1.76-2.76,2.47-1.02.71-2.06,1.32-3.11,1.84-1.05.51-2.03.93-2.94,1.24-.91.31-1.66.54-2.27.69-.61.15-.97.22-1.08.22-.34,0-.51-.09-.51-.27,0-.23.3-.46.89-.69,2.31-.87,4.21-1.73,5.7-2.59,1.49-.86,2.66-1.68,3.52-2.47s1.5-1.53,1.92-2.21c.42-.69.74-1.29.94-1.82l-10.27.45c-.14,0-.26,0-.36.02-.1.01-.21.02-.33.02-.48,0-.85-.11-1.1-.34-.25-.23-.42-.47-.52-.72-.09-.25-.14-.4-.14-.45,0-.09.06-.14.17-.14h.14c.21.02.44.05.7.09.26.04.53.05.81.05h.31l4.7-.21-.48-5.43c-.07-.94-.19-1.57-.38-1.89-.07-.11-.1-.22-.1-.31,0-.16.1-.24.31-.24.3,0,.89.23,1.79.69l5.7-.34v-1.03c-.02-.3-.05-.57-.07-.81-.02-.24-.08-.47-.17-.7-.02-.07-.04-.13-.05-.19s-.02-.1-.02-.12c0-.11.09-.17.27-.17.11,0,.31.03.58.09s.54.16.79.31.38.38.38.7v1.79l6.25-.38h.27c.46,0,.78.07.98.21.19.14.32.29.38.45.06.16.09.26.09.31,0,.12-.02.23-.07.34-.05.11-.08.24-.1.38l-.65,5.73,3.88-.17c.27-.02.57-.06.89-.12s.6-.13.82-.22c.05-.02.12-.03.24-.03.14,0,.32.07.55.21.23.14.44.31.63.51s.29.41.29.62-.16.33-.48.38l-13.84.58c1.37,1.47,2.78,2.73,4.22,3.81ZM236.52,225.35c-.26.56-.52.84-.77.84s-.38-.17-.38-.51c0-.05,0-.1.02-.17s.03-.15.05-.24c.14-.5.27-1.01.41-1.51s.26-1.01.38-1.51l-6.63.41.38,3.13v.07c0,.27-.16.41-.48.41-.02,0-.15-.02-.38-.05-.23-.03-.45-.13-.67-.29-.22-.16-.33-.41-.33-.76v-.72c0-.21-.01-.4-.03-.58l-.14-1.1-5.87.38h-.58c-.37,0-.71-.06-1.03-.19-.32-.12-.6-.5-.82-1.11-.02-.05-.04-.1-.04-.17s.06-.1.17-.1h.1c.46.07.92.1,1.37.1h.41l6.11-.38-.34-2.92c-.02-.25-.06-.49-.12-.7-.06-.22-.17-.45-.33-.7l-.07-.14c0-.14.15-.21.45-.21.23,0,.54.03.94.09s.62.27.67.64l.45,3.85,7.11-.45c.11-.57.22-1.14.31-1.7.09-.56.15-1.09.17-1.6,0-.05,0-.1.02-.15s.02-.12.02-.19c0-.27-.05-.54-.14-.79,0-.02,0-.04-.02-.05s-.02-.03-.02-.05c0-.16.11-.24.34-.24s.49.06.77.17c.29.12.54.25.77.41.23.16.34.31.34.45v.04c-.12.57-.26,1.17-.43,1.79-.17.62-.35,1.22-.53,1.82l5.25-.31c.25-.02.51-.05.79-.09.27-.04.55-.1.82-.19.05-.02.13-.04.24-.04.34,0,.71.16,1.1.48.27.27.41.51.41.72,0,.23-.16.37-.48.41l-8.62.55c-.5,1.56-.89,2.62-1.15,3.18ZM231.93,232.49c.07-.97.11-2.05.14-3.24l-5.77.34.45,5.73,4.81-.2c.18-.78.31-1.65.38-2.63ZM233.75,229.14c-.02,1.15-.07,2.21-.15,3.21s-.21,1.89-.4,2.7l6.01-.24.65-6.01-6.11.34Z"/>
    <path class="cls-3" d="M259.78,227.1c-2.38,1.93-4.93,3.65-7.66,5.13-.37.21-.68.31-.93.31-.21,0-.31-.08-.31-.24,0-.27.3-.61.89-1,1.85-1.21,3.68-2.56,5.49-4.03,1.81-1.48,3.51-3.08,5.1-4.81,1.59-1.73,2.96-3.57,4.1-5.51.05-.07.1-.2.15-.4s.09-.39.09-.6c0-.18.09-.27.27-.27.16,0,.38.07.65.22s.53.33.77.53c.24.21.36.41.36.62,0,.05-.02.12-.07.21-.21.3-.42.6-.64.89-.22.3-.43.6-.63.89,1.69,1.6,3.36,3.02,5.01,4.26,1.65,1.24,3.34,2.36,5.06,3.37,1.73,1.01,3.53,1.97,5.41,2.88.27.11.41.24.41.38,0,.02-.09.14-.26.34s-.38.41-.62.6c-.24.19-.45.29-.64.29-.09,0-.46-.18-1.12-.53-.65-.36-1.51-.86-2.58-1.51-1.06-.65-2.25-1.43-3.55-2.32-1.31-.89-2.65-1.89-4.04-3-1.38-1.11-2.74-2.29-4.07-3.55-2.08,2.63-4.32,4.92-6.7,6.85ZM263.51,239.58c-.83,1.33-1.62,2.49-2.35,3.5,1.26-.16,2.59-.33,3.98-.5,1.39-.17,2.77-.35,4.12-.53,1.35-.18,2.59-.36,3.71-.52-.5-.62-1-1.22-1.49-1.8s-.99-1.14-1.5-1.66c-.2-.21-.31-.39-.31-.55,0-.25.11-.45.35-.58.23-.14.41-.21.55-.21.18,0,.37.09.55.27,1.17,1.26,2.32,2.55,3.47,3.86,1.14,1.32,2.26,2.67,3.36,4.07.18.21.27.45.27.72s-.14.51-.41.72-.5.31-.69.31c-.2,0-.4-.13-.58-.38-.41-.6-.83-1.19-1.27-1.79-.43-.6-.88-1.18-1.34-1.75-.55.09-1.31.21-2.28.36s-2.06.32-3.25.5-2.4.37-3.62.55-2.38.36-3.47.52c-1.09.16-2.01.29-2.75.38-.74.09-1.22.14-1.43.14-.23,0-.49-.07-.79-.21s-.55-.55-.75-1.24c0-.02,0-.05-.02-.07-.01-.02-.02-.05-.02-.07,0-.12.07-.17.2-.17h.1c.14.02.27.04.41.05s.29.02.45.02.42-.02.79-.05c.37-.03.93-.1,1.68-.19.8-1.17,1.61-2.44,2.42-3.83.81-1.38,1.6-2.77,2.35-4.17l-7.11.27c-.16,0-.32,0-.46.02-.15.01-.28.02-.4.02-.18,0-.35-.02-.48-.05-.14-.04-.26-.1-.38-.19-.32-.25-.57-.62-.76-1.1-.02-.05-.03-.1-.03-.17,0-.11.06-.17.17-.17.05,0,.08,0,.1.02s.05.02.07.02c.25.05.5.08.74.1.24.02.47.03.7.03h.41l19.26-.86c.37-.02.7-.05,1.01-.09s.62-.1.95-.19c.09-.05.18-.07.27-.07.18,0,.4.08.63.22.24.15.46.33.65.53s.29.4.29.58c0,.25-.15.4-.45.45l-13.01.52c-.94,1.6-1.83,3.07-2.66,4.39ZM262.15,229.76h-.38c-.41,0-.74-.11-1-.34-.25-.23-.43-.47-.53-.72-.1-.25-.15-.4-.15-.45,0-.12.07-.17.21-.17.02,0,.04,0,.07.02.02.01.05.02.07.02.25.05.49.08.7.1.21.02.43.04.63.04.11,0,.22,0,.33-.02.1-.01.2-.02.29-.02l7.01-.38c.8-.02,1.43-.14,1.89-.34.07-.02.13-.04.19-.05.06-.01.12-.02.19-.02.3,0,.62.15.96.45.34.3.52.56.52.79,0,.25-.15.4-.45.45l-10.09.62c-.16.02-.31.04-.45.04Z"/>
    <path class="cls-3" d="M288.02,225.43h-.36c-.16,0-.4-.05-.7-.15-.31-.1-.55-.46-.74-1.08,0-.05,0-.07-.02-.09-.01-.01-.02-.03-.02-.05,0-.11.07-.17.2-.17h.07c.18.02.38.05.58.09.2.03.42.05.65.05h.27l8.96-.62c.48-.02.88-.09,1.2-.21.14-.05.24-.07.31-.07.07,0,.21.05.41.14.21.09.41.22.6.38.19.16.3.34.3.55,0,.25-.17.4-.52.45l-10.78.76c-.16.02-.31.03-.43.03ZM290.99,245.69v.1c0,.3-.14.45-.41.45-.02,0-.14-.03-.36-.09s-.43-.17-.64-.33c-.2-.16-.31-.39-.31-.69v-.27c.02-.14.04-.29.04-.46v-1.01l-.38-4.57c-.02-.32-.06-.64-.12-.96s-.12-.58-.19-.79c-.05-.14-.07-.23-.07-.27,0-.16.1-.24.31-.24.3,0,.85.16,1.65.48l6.04-.34h.27c.21,0,.45.09.72.27.27.18.41.41.41.69,0,.12-.02.22-.07.33-.05.1-.08.21-.1.33l-.58,4.81c.39.39.58.72.58,1,0,.23-.19.37-.58.41l-6.28.27.07.89ZM290.29,233.9c-.1.01-.2.02-.29.02-.11,0-.27-.03-.46-.09s-.42-.25-.67-.57l-.24-.48s0-.08-.02-.1c-.01-.02-.02-.05-.02-.07,0-.12.04-.17.13-.17.07,0,.12.01.14.04.39.07.77.1,1.13.1h.38l4.5-.27c.25-.02.47-.05.65-.07.18-.02.38-.07.58-.14.07-.02.13-.04.19-.05s.12-.02.19-.02c.11,0,.34.09.67.26s.5.42.5.74c0,.27-.16.44-.48.48l-6.56.38c-.12,0-.22,0-.33.02ZM290.07,229.59c-.18,0-.43-.05-.72-.15-.3-.1-.53-.43-.69-.98-.02-.05-.03-.1-.03-.17,0-.09.04-.14.14-.14.02,0,.04,0,.07.02.02.01.05.02.07.02.39.07.76.1,1.13.1h.38l4.53-.31c.25-.02.48-.05.67-.07s.38-.07.57-.14c.07-.02.13-.04.19-.05s.11-.02.15-.02c.41.14.72.28.93.43.21.15.31.35.31.6,0,.23-.17.37-.52.41l-6.63.45h-.55ZM295.18,221.93c-.64-.41-1.44-.85-2.39-1.3s-1.83-.87-2.63-1.24c-.32-.14-.48-.33-.48-.58,0-.05.04-.19.12-.45.08-.25.26-.38.53-.38.16,0,.32.04.48.1,1.67.66,2.9,1.17,3.69,1.53.79.36,1.3.62,1.55.81.24.18.36.38.36.58s-.05.45-.15.72c-.1.27-.28.41-.53.41-.11,0-.3-.07-.55-.21ZM290.48,238.38l.34,5.05,4.91-.21.41-5.12-5.66.27ZM303.84,246.17v.1c0,.32-.15.48-.45.48-.18,0-.47-.09-.86-.27-.39-.18-.58-.49-.58-.93v-.14c.02-.16.04-.32.05-.46.01-.15.02-.3.02-.46,0-.18,0-.37-.02-.55-.01-.18-.03-.37-.05-.55l-.55-6.69c-.02-.32-.06-.65-.1-.98-.04-.33-.11-.61-.2-.84-.07-.14-.1-.27-.1-.41,0-.16.1-.24.31-.24.27,0,.87.23,1.79.69l3.5-.17.04-5.87-5.84.34c-.14,0-.28,0-.43.02-.15.01-.28.02-.4.02-.16,0-.31-.02-.45-.05-.14-.04-.26-.1-.38-.19,0-.02-.07-.11-.2-.26s-.27-.32-.4-.52c-.13-.19-.19-.35-.19-.46s.07-.17.2-.17c.05,0,.08,0,.1.02s.04.02.07.02c.25.05.51.08.77.1.26.02.51.04.74.04h.45l5.98-.38.03-5.7c-.32.09-.75.21-1.29.34s-1.1.28-1.7.43c-.59.15-1.16.27-1.68.38s-.94.15-1.23.15c-.41,0-.62-.09-.62-.27,0-.27.4-.54,1.2-.79.2-.07.65-.21,1.34-.41.69-.21,1.5-.47,2.42-.79.93-.32,1.86-.66,2.8-1.03.94-.37,1.78-.74,2.52-1.13.74-.39,1.26-.75,1.56-1.1.07-.07.13-.1.17-.1.14,0,.3.1.48.29.18.19.35.42.5.69.15.26.22.5.22.7,0,.23-.09.39-.27.48-.8.3-1.59.58-2.37.86s-1.56.54-2.33.79l-.07,6.11,5.39-.31c.85-.07,1.5-.18,1.96-.34.04-.02.09-.04.14-.05.04-.01.09-.02.14-.02.16,0,.37.07.62.21s.48.3.69.5c.2.19.31.38.31.57,0,.25-.17.4-.52.45l-8.72.48-.07,5.87,4.26-.21h.2c.07,0,.23.03.48.09.25.06.49.16.72.31.23.15.34.37.34.67,0,.14-.04.27-.12.39-.08.13-.13.25-.15.36l-1.03,6.39c.3.3.5.54.62.74s.17.35.17.46c0,.14-.06.23-.19.29-.12.06-.27.09-.43.09l-9.44.21.14,1.75ZM303.01,236.35l.55,6.59,7.76-.21.86-6.76-9.17.38Z"/>
    <path class="cls-3" d="M342.67,221.95c.3.22.45.46.45.74,0,.09-.04.19-.1.31-.02.07-.06.14-.1.21s-.09.16-.14.27c-.64,1.47-1.41,2.91-2.32,4.33-.91,1.42-1.89,2.79-2.97,4.12.82.71,1.71,1.49,2.65,2.35s1.87,1.73,2.8,2.61c.93.88,1.79,1.75,2.59,2.59s1.48,1.61,2.03,2.3c.07.09.1.23.1.41,0,.3-.11.57-.34.82s-.45.38-.65.38c-.23,0-.55-.25-.96-.75-.64-.8-1.37-1.66-2.2-2.58-.82-.92-1.66-1.81-2.52-2.7-.86-.88-1.68-1.7-2.46-2.45-.78-.76-1.43-1.37-1.95-1.85-1.35,1.58-2.73,3.03-4.14,4.34s-2.73,2.44-3.95,3.38-2.28,1.66-3.18,2.18-1.5.77-1.82.77c-.14,0-.24-.03-.31-.1-.02-.02-.03-.07-.03-.14,0-.27.24-.56.72-.86,1.14-.8,2.47-1.83,3.97-3.07s3.04-2.7,4.63-4.34c1.59-1.65,3.11-3.48,4.57-5.49,1.45-2.01,2.73-4.18,3.83-6.49-.27.05-.75.13-1.43.24-.68.11-1.47.25-2.37.39-.9.15-1.83.3-2.78.45-.95.15-1.83.29-2.65.43-.81.14-1.48.25-1.99.33-.51.08-.78.12-.8.12-.32,0-.65-.19-.98-.57s-.5-.68-.5-.91c0-.16.09-.25.27-.27h.07c.11,0,.24.02.38.05.13.04.25.06.34.09h.52c.11,0,.23-.01.34-.03.23-.02.71-.09,1.46-.21s1.63-.25,2.65-.41c1.02-.16,2.07-.33,3.16-.5,1.09-.17,2.08-.33,2.99-.48.9-.15,1.61-.26,2.11-.33h.14c.3,0,.6.11.9.33Z"/>
    <path class="cls-3" d="M370.42,220.04c.09,0,.15.01.17.03.48.18.82.36,1.03.53.2.17.39.38.55.64.04.05.07.13.07.24,0,.09-.01.16-.03.21.2-.02.59-.07,1.17-.14s1.22-.15,1.94-.24c.72-.09,1.43-.18,2.11-.26.69-.08,1.27-.15,1.75-.21.48-.06.75-.09.82-.09.25,0,.55.11.9.33.34.22.51.45.51.7,0,.16-.08.32-.24.48-.02.02-.06.06-.12.1-.06.05-.11.1-.15.17-1.4,2.88-2.96,5.5-4.69,7.85-1.73,2.35-3.48,4.41-5.25,6.2s-3.45,3.29-5.03,4.5c-1.58,1.21-2.92,2.13-4.03,2.75-1.11.62-1.85.93-2.22.93-.18,0-.31-.06-.38-.17-.02-.02-.04-.08-.04-.17,0-.27.27-.55.82-.82,1.03-.55,2.32-1.44,3.88-2.68,1.56-1.24,3.22-2.76,5-4.58,1.77-1.82,3.53-3.91,5.27-6.27s3.32-4.93,4.74-7.73c-1.14.09-2.09.18-2.85.27-.75.09-1.44.18-2.04.26-.61.08-1.26.17-1.98.26-.09.02-.19.04-.29.04h-.29c-.16,0-.27-.01-.34-.04-1.01,1.35-2.04,2.59-3.09,3.71s-2.05,2.09-2.99,2.9c-.94.81-1.72,1.46-2.35,1.94-.63.48-1.03.77-1.18.86-.25.18-.47.27-.65.27-.14,0-.24-.05-.31-.14-.07-.12-.1-.22-.1-.31,0-.14.14-.31.41-.51.59-.48,1.41-1.21,2.44-2.2s2.14-2.15,3.33-3.5c1.19-1.35,2.3-2.82,3.33-4.39.04-.09.1-.21.15-.36s.08-.3.08-.46-.03-.34-.1-.55v-.1c0-.16.09-.24.27-.24Z"/>
    <path class="cls-3" d="M415.5,230.96c.37.07.69.17.98.31.29.14.47.3.53.48,0,.02,0,.04.02.05.01.01.02.04.02.09,0,.23-.16.41-.5.53s-.65.19-.95.19c-4.12.02-7.96.14-11.54.36-3.57.22-6.69.44-9.34.67-.14.02-.25.03-.36.03h-.33c-.39,0-.71-.1-.96-.31s-.44-.43-.55-.67c-.11-.24-.17-.41-.17-.5,0-.14.06-.23.17-.27.05-.02.11-.04.2-.04.16,0,.35.02.55.05.21.04.43.05.65.05h.14c3.2-.18,6.53-.39,9.98-.62,3.44-.23,6.9-.4,10.39-.51h.1c.27,0,.59.04.96.1Z"/>
    <path class="cls-3" d="M433.14,233.5c-.58,1.83-1.28,3.42-2.08,4.76-.8,1.34-1.62,2.47-2.45,3.38s-1.6,1.65-2.28,2.2c-.25.18-.47.27-.65.27-.23,0-.35-.13-.35-.38s.11-.48.35-.69c.57-.55,1.21-1.27,1.92-2.18.71-.9,1.41-1.99,2.1-3.26.68-1.27,1.28-2.73,1.78-4.39s.83-3.52,1-5.58v-.14c0-.39-.07-.65-.22-.79-.15-.14-.22-.29-.22-.45,0-.09.01-.16.03-.21.05-.07.15-.1.31-.1.18,0,.4.03.64.09s.43.11.57.15c.23.07.4.15.51.26.11.1.17.28.17.53v.21c-.16,2.38-.53,4.49-1.12,6.32ZM437.91,241.23c.03-.14.05-.29.05-.45,0-1.65,0-3.34.02-5.08.01-1.74.02-3.41.02-5.01v-6.83c0-.46-.09-.78-.27-.98-.18-.19-.27-.38-.27-.57v-.04c0-.16.14-.24.41-.24.07,0,.26.02.58.07.32.05.62.16.91.34.29.18.43.5.43.96,0,.09,0,.2-.02.33-.01.13-.02.27-.02.43v1.22c0,.67,0,1.53-.02,2.56-.01,1.03-.02,2.14-.02,3.33s0,2.37-.02,3.55c-.01,1.18-.02,2.26-.02,3.24v2.37c1.42-.92,2.87-2.01,4.36-3.28s2.92-2.63,4.29-4.09,2.59-2.88,3.64-4.28c.25-.34.48-.51.69-.51.23,0,.35.16.35.48,0,.18-.06.39-.17.62-.59,1.12-1.34,2.24-2.23,3.35-.89,1.11-1.85,2.18-2.87,3.21-1.02,1.03-2.03,1.98-3.04,2.85-1.01.87-1.93,1.64-2.78,2.3s-1.55,1.18-2.1,1.55c-.55.37-.86.55-.93.55-.2,0-.38-.1-.53-.31-.15-.21-.27-.43-.36-.67-.09-.24-.14-.38-.14-.43v-.1c0-.16.02-.31.05-.45Z"/>
  </g>
  <g>
    <path class="cls-2" d="M209.18,262.15c0,.11-.02.2-.06.25-.04.06-.12.08-.25.08-.16,0-.32,0-.48-.01-.16,0-.32-.01-.48-.01-.18,0-.38.05-.6.14s-.34.26-.34.48v15.17c0,.22.11.38.34.48.22.1.42.14.6.14s.35,0,.52-.03c.17-.02.33-.02.49-.02.14,0,.22.08.22.24v.26c0,.11-.06.17-.17.17-.56,0-1.13-.02-1.69-.05-.57-.03-1.14-.05-1.72-.05-.32,0-.65,0-.97.02-.33.02-.65.03-.97.05-.21.02-.41.03-.61.05-.2.02-.4.02-.61.02-.1,0-.14-.08-.14-.24,0-.06,0-.16.03-.28.02-.12.06-.18.14-.18.18,0,.36,0,.55.01.19,0,.38.01.55.01s.39-.05.63-.14c.24-.1.36-.26.36-.48v-7.62h-9.69v7.62c0,.22.11.38.34.48.22.1.42.14.6.14s.35,0,.52-.03c.17-.02.34-.02.52-.02.11,0,.18.04.19.12.02.02.02.06.02.13v.16s-.02.12-.05.22c-.06.03-.11.05-.14.05-.56,0-1.12-.02-1.67-.05s-1.11-.05-1.67-.05c-.34,0-.67,0-1,.02-.33.02-.65.03-.97.05-.21.02-.41.03-.6.05-.19.02-.39.02-.6.02-.11,0-.15-.04-.12-.12-.03-.1-.05-.15-.05-.17,0-.06,0-.15.02-.25.02-.1.07-.16.17-.16.18,0,.36,0,.54.01.18,0,.37.01.54.01.19,0,.4-.05.64-.14.23-.1.35-.26.35-.48,0-1.38,0-2.76.01-4.13s.01-2.75.01-4.11c0-1.14,0-2.28-.01-3.44,0-1.16-.01-2.3-.01-3.44,0-.22-.12-.39-.35-.48-.23-.1-.44-.14-.64-.14-.18,0-.36,0-.54.01s-.36.01-.54.01c-.11,0-.18-.06-.19-.19-.02-.13-.02-.22-.02-.29,0-.14.06-.22.19-.22.21,0,.41,0,.6.03.19.02.39.03.6.05.32.02.65.03.97.05.33.02.66.02,1,.02.56,0,1.13-.02,1.69-.05.57-.03,1.13-.05,1.7-.05.11,0,.17.05.17.14v.26c0,.18-.08.26-.24.26-.18,0-.35,0-.52-.02-.17-.02-.34-.02-.52-.02s-.38.05-.6.14c-.22.1-.34.26-.34.48v6.7h9.69v-6.51c0-.32-.09-.54-.26-.65s-.42-.17-.72-.17c-.18,0-.36,0-.55.01-.19,0-.38.01-.55.01-.1,0-.15-.05-.16-.16,0-.1-.01-.19-.01-.25,0-.19.06-.29.19-.29.38,0,.78.02,1.19.05.41.03.81.05,1.21.05h.72c.58,0,1.15-.02,1.72-.05.57-.03,1.13-.05,1.69-.05.08,0,.14.03.17.1s.05.14.05.22Z"/>
    <path class="cls-2" d="M222.57,278.21c0,.06,0,.11-.02.14-.16.35-.43.62-.8.8-.38.18-.75.28-1.12.28-.67,0-1.16-.2-1.45-.59s-.53-.88-.71-1.45c-.61.56-1.28,1.03-2.02,1.41-.74.38-1.53.57-2.38.57-.59,0-1.15-.12-1.67-.35-.52-.23-.94-.57-1.26-1.02-.32-.45-.48-.99-.48-1.63s.17-1.25.52-1.74c.34-.49.78-.91,1.32-1.25.54-.34,1.11-.62,1.73-.84.62-.22,1.2-.38,1.74-.49.37-.08.74-.15,1.13-.22.38-.06.76-.13,1.13-.19,0-.45-.02-.97-.06-1.56-.04-.59-.16-1.08-.37-1.47-.21-.37-.49-.7-.84-.99-.35-.29-.75-.43-1.18-.43-.74,0-1.31.19-1.73.58-.42.38-.71.93-.89,1.63-.02.08-.03.16-.04.25,0,.09-.02.17-.04.25-.02.1-.08.18-.18.25s-.21.11-.32.11c-.31,0-.58-.07-.83-.22s-.37-.38-.37-.72c0-.19.03-.36.1-.5.21-.5.54-.91,1.01-1.24s.98-.58,1.55-.76,1.1-.26,1.6-.26c.87,0,1.65.16,2.36.48.71.32,1.27.79,1.7,1.41s.64,1.39.64,2.32c0,1.04,0,2.09-.01,3.15,0,1.06.02,2.12.08,3.17.02.35.09.66.22.93.13.26.39.4.79.4.21,0,.43-.05.66-.16.23-.1.38-.16.44-.16.05,0,.07.04.07.12ZM218.36,276.67c-.07-.72-.1-1.45-.11-2.18s-.02-1.46-.04-2.2h-.34c-.5,0-1.05.08-1.65.23-.6.15-1.17.38-1.72.68-.54.31-.99.69-1.33,1.14-.34.46-.52.98-.52,1.57,0,.77.22,1.35.65,1.74s1.02.59,1.76.59c.35,0,.74-.08,1.15-.25.42-.17.82-.37,1.2-.61.38-.24.7-.48.94-.72Z"/>
    <path class="cls-2" d="M231.48,278.38c0,.14-.11.29-.32.43s-.48.27-.78.38c-.31.11-.6.2-.88.26-.28.06-.49.1-.61.1-.83,0-1.48-.1-1.93-.31s-.78-.55-.96-1.03c-.18-.48-.28-1.13-.28-1.95,0-1.33,0-2.66.01-4s.02-2.67.04-4h-1.73c-.11,0-.2.03-.28.08-.07.06-.15.08-.23.08s-.12-.06-.12-.17c0-.06.05-.19.13-.38.09-.19.15-.32.18-.39.05.02.12.03.22.03h1.87l.02-3.05c.37-.24.71-.51,1.01-.8.31-.3.61-.6.91-.9.03-.03.06-.06.1-.08.03-.02.06-.04.1-.04.14,0,.22.06.22.17l-.14,4.69c.51,0,1.02,0,1.53-.02.5-.02,1.01-.02,1.5-.02.21,0,.31.12.31.36,0,.3-.14.46-.41.46h-2.93c0,1.22,0,2.44-.01,3.67,0,1.23-.01,2.46-.01,3.69v1.85c0,.4.17.68.5.83.34.15.66.23.98.23.45,0,.89-.07,1.32-.22.05-.03.12-.07.22-.1s.17-.05.22-.05c.16,0,.24.07.24.22Z"/>
    <path class="cls-2" d="M244.58,278.21c0,.06,0,.11-.02.14-.16.35-.43.62-.8.8-.38.18-.75.28-1.12.28-.67,0-1.16-.2-1.45-.59s-.53-.88-.71-1.45c-.61.56-1.28,1.03-2.02,1.41-.74.38-1.53.57-2.38.57-.59,0-1.15-.12-1.67-.35-.52-.23-.94-.57-1.26-1.02-.32-.45-.48-.99-.48-1.63s.17-1.25.52-1.74c.34-.49.78-.91,1.32-1.25.54-.34,1.11-.62,1.73-.84.62-.22,1.2-.38,1.74-.49.37-.08.74-.15,1.13-.22.38-.06.76-.13,1.13-.19,0-.45-.02-.97-.06-1.56-.04-.59-.16-1.08-.37-1.47-.21-.37-.49-.7-.84-.99-.35-.29-.75-.43-1.18-.43-.74,0-1.31.19-1.73.58-.42.38-.71.93-.89,1.63-.02.08-.03.16-.04.25,0,.09-.02.17-.04.25-.02.1-.08.18-.18.25s-.21.11-.32.11c-.31,0-.58-.07-.83-.22s-.37-.38-.37-.72c0-.19.03-.36.1-.5.21-.5.54-.91,1.01-1.24s.98-.58,1.55-.76,1.1-.26,1.6-.26c.87,0,1.65.16,2.36.48.71.32,1.27.79,1.7,1.41s.64,1.39.64,2.32c0,1.04,0,2.09-.01,3.15,0,1.06.02,2.12.08,3.17.02.35.09.66.22.93.13.26.39.4.79.4.21,0,.43-.05.66-.16.23-.1.38-.16.44-.16.05,0,.07.04.07.12ZM240.38,276.67c-.07-.72-.1-1.45-.11-2.18s-.02-1.46-.04-2.2h-.34c-.5,0-1.05.08-1.65.23-.6.15-1.17.38-1.72.68-.54.31-.99.69-1.33,1.14-.34.46-.52.98-.52,1.57,0,.77.22,1.35.65,1.74s1.02.59,1.76.59c.35,0,.74-.08,1.15-.25.42-.17.82-.37,1.2-.61.38-.24.7-.48.94-.72Z"/>
    <path class="cls-2" d="M266.19,275.37c0,.29-.02.58-.07.88-.05.3-.09.59-.12.88-.05.32-.08.65-.1.97s-.06.65-.14.97c-.02.1-.06.19-.13.28-.07.09-.16.13-.28.13-1.71,0-3.43-.01-5.14-.04-1.71-.02-3.43-.04-5.14-.04-.51,0-1.03.02-1.55.06-.52.04-1.04.06-1.55.06-.08,0-.16-.03-.23-.09-.07-.06-.11-.12-.11-.2,0-.1.02-.19.07-.28.05-.09.13-.13.24-.13.34,0,.66-.02.96-.06.3-.04.56-.15.76-.34.2-.18.3-.48.3-.9v-13.8c0-.37-.11-.61-.34-.73-.22-.12-.5-.18-.82-.18-.16,0-.31,0-.46.01-.14,0-.29.01-.43.01-.13,0-.24-.03-.34-.1-.1-.06-.14-.17-.14-.31,0-.13.03-.24.07-.34.05-.1.15-.14.31-.14.27,0,.54,0,.8.02.26.02.52.03.78.03,1.62,0,3.24-.01,4.86-.04,1.62-.02,3.23-.04,4.83-.04.74,0,1.47-.03,2.19-.07.06.46.14.93.24,1.39.1.47.18.93.24,1.39.03.1.06.19.07.28.01.09.02.18.02.27,0,.16-.05.27-.16.34s-.23.1-.37.1c-.13,0-.22-.03-.27-.08-.06-.06-.11-.15-.16-.28-.31-.96-.71-1.62-1.21-1.99-.5-.37-1.27-.55-2.29-.55h-5v7.23c.62,0,1.25,0,1.87-.01.62,0,1.26-.03,1.9-.06.66-.03,1.27-.09,1.84-.18.57-.09,1.17-.19,1.81-.3h.03c.09,0,.14.04.14.12,0,.11-.05.31-.14.6-.1.29-.17.48-.22.58-.08.19-.21.29-.39.29-.4,0-.81-.03-1.24-.08-.42-.06-.85-.08-1.26-.08-.29-.02-.58-.02-.87-.01s-.59.01-.89.01c-.11,0-.23,0-.35-.01s-.24-.01-.37-.01c-.24,0-.51.02-.79.06s-.54.14-.76.29c-.21.15-.32.4-.32.73v5.77c0,.54.13.86.41.95.27.09.63.13,1.08.13h1.92c.45,0,.95-.03,1.5-.07.55-.05,1.1-.15,1.62-.31.53-.16.96-.39,1.3-.7.37-.34.63-.71.78-1.12.15-.41.33-.82.54-1.24.08-.14.21-.22.38-.22s.26.1.26.29Z"/>
    <path class="cls-2" d="M281.79,279.12c0,.21-.12.31-.36.31-.35,0-.71-.01-1.08-.04-.37-.03-.74-.04-1.11-.04-.54,0-1.1.01-1.67.04-.57.02-1.13.04-1.69.04-.07,0-.11-.05-.12-.16-.02-.1-.02-.19-.02-.25,0-.13.08-.19.24-.19h.39c.08,0,.16,0,.25.01s.17.01.25.01c.47,0,.72-.23.77-.7.05-.95.07-1.9.06-2.86-.01-.96-.01-1.91-.01-2.86v-1.08c-.02-.37-.04-.82-.07-1.36-.03-.54-.1-.97-.22-1.31-.25-.83-.82-1.25-1.68-1.25-.78,0-1.51.2-2.16.6s-1.22.91-1.71,1.51c-.01,1.17-.02,2.33-.02,3.49v5.12c0,.24.1.42.31.53s.42.17.63.17c.13,0,.25-.01.37-.04.12-.03.23-.04.35-.04.06,0,.1.04.12.12.01.08.02.14.02.19,0,.06-.02.14-.06.22s-.11.12-.2.12c-.35,0-.7-.01-1.05-.04-.35-.03-.69-.04-1.05-.04-.54,0-1.09.01-1.63.04-.55.02-1.1.04-1.66.04-.08,0-.12-.05-.13-.16-.01-.1-.01-.19-.01-.25,0-.13.07-.19.22-.19h.34c.08,0,.16,0,.24.01s.16.01.24.01c.46,0,.72-.23.77-.7.02-.22.02-.45.02-.67v-4.82c0-1.39,0-2.77-.02-4.15,0-.22-.05-.45-.14-.67-.1-.22-.28-.34-.55-.34-.21,0-.41.03-.6.1-.19.06-.39.1-.6.1-.11,0-.17-.08-.17-.24,0-.03,0-.07.01-.11,0-.04.02-.07.04-.08.01-.02.04-.03.07-.04.03,0,.06-.02.07-.04.29-.08.59-.14.9-.17.31-.03.61-.08.9-.14.27-.05.54-.12.79-.2.25-.09.51-.13.77-.13.11,0,.2.06.26.17.08.14.14.35.19.61.05.26.08.53.11.8.02.27.04.5.04.67.35-.35.77-.7,1.26-1.05.49-.34,1-.63,1.54-.87.54-.23,1.06-.35,1.57-.35,1.48,0,2.47.33,2.99.97.52.65.78,1.67.78,3.06,0,1.25,0,2.5-.01,3.75-.01,1.25-.01,2.5-.01,3.75,0,.3.09.51.28.61s.4.16.66.16c.13,0,.25-.01.39-.04.13-.03.25-.04.36-.04.1,0,.16.04.2.11s.06.15.06.23Z"/>
    <path class="cls-2" d="M295.18,266.69c0,.34-.07.57-.2.69-.13.12-.31.18-.53.19-.22,0-.45.01-.69.01-.35,0-.71,0-1.07-.01-.36,0-.72-.02-1.09-.04.51.4.9.88,1.14,1.44.25.56.37,1.16.37,1.8,0,.79-.22,1.48-.66,2.08-.44.6-1.01,1.07-1.7,1.41-.69.34-1.4.5-2.14.5-.25,0-.5-.01-.74-.04-.24-.03-.49-.05-.74-.06-.21.19-.45.4-.71.63-.26.22-.4.5-.4.82,0,.26.12.44.37.57s.53.2.83.25c.3.05.54.08.72.1l3.05.22c.54.05,1.08.16,1.6.35.52.18.96.46,1.31.84.35.38.53.89.53,1.53,0,.67-.19,1.23-.59,1.68-.39.45-.9.81-1.51,1.08-.62.27-1.25.46-1.91.58s-1.25.17-1.78.17c-.42,0-.94-.02-1.56-.06-.63-.04-1.24-.14-1.85-.3-.61-.16-1.12-.41-1.53-.76-.41-.34-.61-.81-.61-1.41,0-.43.1-.84.31-1.21.21-.38.47-.73.78-1.05s.62-.6.93-.84c-.18-.08-.41-.2-.71-.37-.3-.17-.44-.36-.44-.59,0-.27.15-.58.44-.91.3-.34.62-.66.98-.97.35-.31.62-.56.81-.73-.81-.38-1.42-.88-1.81-1.48-.39-.6-.59-1.35-.59-2.25,0-.83.23-1.55.71-2.15s1.07-1.07,1.8-1.39c.73-.33,1.47-.49,2.22-.49.27,0,.54.02.81.06.27.04.54.1.79.18.13.03.27.08.42.13.15.06.3.09.42.11.11.02.22.03.33.03h.32c.58,0,1.13-.05,1.66-.13.53-.09,1-.36,1.42-.8.1-.1.17-.15.24-.15.13,0,.2.11.21.33s.02.37.02.44ZM292.08,280.25c0-.64-.18-1.1-.54-1.38-.36-.28-.79-.46-1.31-.55-.51-.09-1.01-.16-1.49-.2l-2.69-.26c-.35.39-.61.77-.78,1.14-.17.38-.25.83-.25,1.36,0,.77.19,1.33.57,1.67.38.35.85.57,1.43.66.58.1,1.16.14,1.75.14s1.12-.08,1.62-.24c.51-.16.92-.43,1.23-.8s.47-.89.47-1.53ZM290.9,270.63c0-.5-.05-1.02-.17-1.59-.11-.56-.33-1.04-.66-1.44s-.8-.6-1.43-.6c-.71,0-1.25.18-1.64.54s-.64.82-.78,1.37c-.13.55-.2,1.13-.2,1.72,0,.63.06,1.21.18,1.77s.37,1.01.74,1.36.94.53,1.7.53c.46,0,.85-.12,1.14-.36.3-.24.53-.55.68-.93.16-.38.27-.77.34-1.19.06-.42.09-.81.09-1.18Z"/>
    <path class="cls-2" d="M302.99,279.17c0,.08-.02.16-.06.23s-.11.11-.2.11c-.5,0-1-.01-1.52-.04-.51-.03-1.03-.04-1.54-.04h-.84c-.34,0-.67.01-1.01.04-.34.02-.67.04-1.01.04-.06,0-.11-.03-.13-.08-.02-.06-.04-.11-.04-.16v-.14s.01-.1.02-.14c.03-.06.12-.1.28-.11.15,0,.31,0,.48,0,.17,0,.28.01.33.01.22,0,.43-.05.6-.16.18-.1.26-.28.26-.54,0-1.23,0-2.46.02-3.69s.02-2.45.02-3.67,0-2.5-.01-3.76c-.01-1.26-.01-2.51-.01-3.76,0-.11,0-.24-.02-.37s-.06-.24-.14-.33c-.06-.08-.13-.12-.19-.13-.06,0-.14-.01-.24-.01-.29,0-.57.05-.85.14-.28.1-.56.14-.83.14-.17,0-.26-.1-.26-.31,0-.13.1-.22.3-.26s.36-.08.47-.1c.56-.13,1.17-.27,1.83-.43.65-.16,1.25-.35,1.78-.55.03,0,.06,0,.1-.02.03-.02.05-.03.07-.03.1,0,.16.03.18.1s.04.14.04.22c0,.45,0,.89-.01,1.33,0,.44-.01.89-.01,1.33v6.73c0,1.23,0,2.47.02,3.71.01,1.24.02,2.48.02,3.71,0,.26.11.44.33.54.21.11.43.16.64.16.17,0,.34,0,.5-.03.16-.02.32-.02.48-.02.08,0,.13.04.15.13.01.09.02.16.02.2Z"/>
    <path class="cls-2" d="M311.36,279.12c0,.08-.02.16-.07.23-.05.07-.11.11-.19.11-.45,0-.89-.01-1.33-.04-.44-.02-.89-.04-1.36-.04h-.65c-.48,0-.96.01-1.43.04s-.94.04-1.41.04c-.06,0-.11-.04-.13-.12-.03-.08-.04-.14-.04-.19,0-.08,0-.14.02-.18s.06-.07.14-.08c.08-.03.17-.05.27-.04s.2.01.3.01c.11,0,.22,0,.31.01.1,0,.2.01.31.01.22,0,.43-.05.61-.16.18-.1.28-.28.28-.54v-9.62c0-.27-.05-.48-.14-.64-.1-.15-.3-.23-.6-.23-.22,0-.45.01-.68.04s-.46.05-.68.08c-.13,0-.19-.07-.19-.22,0-.16.07-.26.19-.31.19-.06.4-.11.61-.13.21-.03.42-.05.61-.08.45-.08.9-.17,1.35-.26s.89-.2,1.32-.31c.05-.02.11-.03.19-.03.18,0,.26.1.26.29,0,1.89,0,3.79-.01,5.7-.01,1.91-.01,3.81-.01,5.72,0,.26.12.44.35.54.23.11.45.16.66.16.16,0,.33,0,.49-.03.17-.02.33-.02.49-.02.06,0,.1.04.12.12s.02.14.02.17ZM309.41,262.49c0,.4-.14.74-.43,1.02s-.63.42-1.03.42-.74-.14-1.03-.42-.43-.62-.43-1.02.14-.74.43-1.02.63-.42,1.03-.42.74.14,1.03.42.43.62.43,1.02Z"/>
    <path class="cls-2" d="M321.96,276.04c0,.72-.16,1.31-.48,1.77-.32.46-.73.8-1.25,1.04-.51.24-1.08.41-1.68.5-.61.1-1.2.14-1.78.14-.53,0-1.06-.06-1.58-.17s-1.05-.19-1.57-.24c-.11-.43-.22-.87-.33-1.3-.1-.43-.22-.86-.35-1.27-.02-.05-.05-.16-.11-.34-.06-.18-.09-.27-.09-.29,0-.13.04-.22.12-.28.08-.06.18-.08.29-.08s.19.04.24.12c.1.11.18.26.25.46.07.19.14.36.2.5.13.26.24.45.34.59.09.14.25.31.46.52.62.66,1.4.99,2.33.99.51,0,.98-.06,1.41-.17.43-.11.76-.33,1.02-.64.25-.31.39-.76.39-1.36,0-.51-.16-.94-.48-1.29-.32-.34-.73-.65-1.24-.93-.5-.27-1.04-.54-1.6-.79-.56-.26-1.09-.54-1.6-.85-.51-.31-.92-.69-1.24-1.14-.32-.45-.48-.99-.48-1.63,0-.78.2-1.43.61-1.92.41-.5.93-.87,1.58-1.12.64-.25,1.3-.37,2-.37.45,0,.85.06,1.21.17.36.11.74.24,1.14.38.13.05.25.08.39.1.13.02.25.02.38.02h.22c.06,0,.13,0,.19-.02.05.29.09.58.13.88s.07.6.11.9c.02.11.04.24.06.4s.04.29.04.42c0,.11-.03.23-.07.35-.05.12-.14.18-.29.18-.11,0-.2-.01-.27-.04-.07-.03-.13-.09-.18-.2-.08-.16-.15-.33-.2-.52s-.12-.36-.18-.52c-.21-.56-.57-1.01-1.08-1.36-.51-.35-1.07-.52-1.66-.52-.75,0-1.32.22-1.71.66s-.58,1.03-.58,1.77c0,.26.07.5.2.75.14.24.29.45.47.62.34.32.73.57,1.19.75.46.18.89.35,1.31.53.55.24,1.11.53,1.7.87.58.34,1.08.75,1.49,1.23.41.48.61,1.07.61,1.76Z"/>
    <path class="cls-2" d="M337.77,279.22c0,.08-.04.14-.12.18-.08.04-.16.06-.24.06-.4,0-.8-.01-1.21-.04s-.82-.04-1.24-.04c-.47,0-.94.02-1.41.05-.47.03-.94.05-1.41.05-.08,0-.13-.05-.15-.16-.03-.1-.04-.19-.04-.25,0-.11.05-.17.17-.17.17,0,.35,0,.52.01s.33.01.49.01c.21,0,.37-.07.49-.2.12-.14.19-.3.2-.49.03-.4.04-.8.04-1.2-.01-.4-.01-.79-.01-1.18v-4.3c0-.48-.02-.96-.05-1.44-.02-.21-.04-.41-.06-.61-.02-.2-.07-.4-.13-.59-.16-.43-.42-.76-.78-1-.36-.23-.77-.35-1.24-.35-.54,0-1.08.14-1.61.42-.53.28-.97.63-1.32,1.05-.39.45-.67.84-.84,1.18-.18.34-.29.69-.33,1.06s-.06.85-.06,1.44v4.23c0,.18,0,.43-.01.75-.01.32.03.61.12.87.09.26.27.38.54.38.16,0,.31,0,.46-.02.14-.02.3-.02.46-.02.14,0,.22.08.22.24,0,.08-.01.16-.04.23s-.08.11-.18.11c-.54,0-1.1-.01-1.67-.04-.57-.02-1.13-.04-1.69-.04-.51,0-1.04.02-1.56.07-.06,0-.12,0-.17.01-.05,0-.1.01-.17.01-.08,0-.14-.04-.18-.13-.04-.09-.06-.16-.06-.23,0-.18.09-.26.26-.26.1,0,.19,0,.29.01.1,0,.2.01.32.01.22,0,.46-.04.71-.11s.38-.25.4-.54c.03-.53.05-1.06.04-1.59,0-.53-.01-1.05-.01-1.56,0-.99,0-1.98.01-2.96.01-.98.01-1.95.01-2.93s-.01-2.05-.02-3.06c-.02-1.02-.03-2.04-.05-3.06,0-.18-.03-.37-.09-.59-.07-.22-.21-.32-.43-.32s-.46.02-.7.05c-.24.03-.48.05-.72.05-.14,0-.22-.06-.22-.19,0-.14.07-.24.22-.29.32-.08.64-.14.95-.19.31-.05.62-.1.93-.17.27-.06.6-.16.97-.28.38-.12.69-.18.95-.18.1,0,.15.03.17.08.02.06.03.12.03.2v3.94c0,1.31-.02,2.63-.05,3.94.35-.37.78-.74,1.29-1.1.5-.37,1.04-.68,1.62-.93.58-.25,1.12-.37,1.63-.37,1.04,0,1.86.15,2.45.46.59.31,1.01.77,1.25,1.41.24.63.36,1.45.36,2.46,0,1.2,0,2.4-.01,3.59-.01,1.19-.01,2.39-.01,3.59,0,.26.07.44.2.54s.33.16.59.16c.11,0,.22,0,.32-.02.1-.02.21-.02.33-.02.08,0,.15.04.22.11s.09.15.09.23Z"/>
    <path class="cls-2" d="M357.39,274.96c0,.91-.21,1.67-.63,2.28s-.97,1.09-1.65,1.45-1.42.62-2.21.77c-.79.15-1.57.23-2.32.23-.98,0-1.9-.15-2.76-.46-.35-.13-.7-.27-1.03-.42-.34-.15-.69-.28-1.06-.37-.06-.51-.17-1.07-.33-1.68-.15-.61-.23-1.16-.23-1.66,0-.22.04-.4.11-.52.07-.12.23-.18.49-.18.22,0,.37.05.43.16.06.11.11.24.14.42.06.22.12.44.17.66.05.22.1.44.17.66.32.96.8,1.63,1.43,2.02.63.38,1.45.58,2.44.58.82,0,1.55-.12,2.2-.35.65-.23,1.16-.61,1.54-1.14.38-.53.56-1.23.56-2.11,0-.69-.23-1.31-.7-1.86-.47-.55-.98-.99-1.54-1.31-.13-.08-.26-.15-.41-.22s-.29-.13-.43-.19c-.5-.25-1-.51-1.5-.77-.51-.26-1.02-.5-1.53-.75-.5-.25-1.01-.58-1.53-.97s-.96-.85-1.32-1.36c-.36-.51-.54-1.07-.54-1.68,0-1.02.27-1.87.81-2.55.55-.67,1.24-1.18,2.09-1.52.85-.34,1.73-.5,2.64-.5.66,0,1.25.08,1.77.24.52.16,1.04.32,1.55.49.51.17,1.07.28,1.68.35.05.48.1.96.14,1.44.05.48.12.96.22,1.44.02.06.03.13.04.19,0,.07.01.13.01.19,0,.26-.08.42-.25.49s-.36.11-.56.11-.32-.04-.34-.12-.04-.2-.07-.36c-.21-1.28-.65-2.25-1.32-2.9-.67-.65-1.68-.97-3.03-.97-.99,0-1.77.26-2.32.79-.55.53-.83,1.3-.83,2.31,0,.67.18,1.24.53,1.71s.82.87,1.41,1.21c.59.35,1.23.67,1.92.97.7.3,1.39.62,2.08.94.69.32,1.32.69,1.91,1.12.58.43,1.05.93,1.41,1.53.35.59.53,1.31.53,2.16Z"/>
    <path class="cls-2" d="M370.92,276.5c0,.11-.09.27-.26.47-.18.2-.31.34-.39.42l-.43.43c-.14.14-.31.28-.48.41-.5.35-1.09.65-1.78.9-.69.25-1.34.37-1.95.37-1.22,0-2.29-.27-3.21-.8-.92-.54-1.64-1.27-2.17-2.21-.52-.94-.78-2.01-.78-3.21s.24-2.3.72-3.34c.48-1.04,1.24-1.88,2.28-2.53.45-.27.95-.49,1.5-.65.55-.16,1.09-.24,1.6-.24.4,0,.79.05,1.17.14.38.1.74.22,1.09.38.21.1.41.19.6.29.19.1.4.14.63.14.19,0,.35-.06.47-.18.12-.12.21-.18.28-.18.05,0,.07.03.07.1.03.19.04.38.04.58,0,.19,0,.38.01.55.01.35.03.71.05,1.06.02.35.03.71.05,1.06v.07c.02.18,0,.31-.05.41-.05.1-.18.14-.39.14-.11,0-.19-.06-.23-.19-.04-.13-.08-.24-.11-.34-.11-.46-.28-.96-.51-1.49-.22-.53-.53-.95-.91-1.27-.24-.22-.54-.41-.9-.55-.36-.14-.7-.22-1.02-.22-.77,0-1.43.2-1.96.59s-.97.9-1.28,1.51c-.32.62-.56,1.28-.71,1.98-.15.71-.23,1.37-.23,2s.07,1.26.22,1.91.37,1.25.68,1.81c.31.56.73,1.01,1.25,1.35.52.34,1.15.5,1.88.5,1.03,0,1.88-.19,2.57-.57.69-.38,1.35-.96,2-1.74.06-.11.15-.17.26-.17.21,0,.31.1.31.29Z"/>
    <path class="cls-2" d="M386.33,279.22c0,.08-.04.14-.12.18s-.16.06-.24.06c-.4,0-.8-.01-1.21-.04-.41-.02-.82-.04-1.24-.04-.46,0-.93.02-1.41.05-.47.03-.94.05-1.41.05-.08,0-.13-.05-.16-.16s-.04-.19-.04-.25c0-.11.06-.17.17-.17.18,0,.35,0,.52.01.17,0,.33.01.49.01.21,0,.38-.07.49-.2.12-.14.19-.3.2-.49.03-.4.04-.8.04-1.2s-.01-.79-.01-1.18v-4.3c0-.48-.02-.96-.05-1.44-.02-.21-.04-.41-.06-.61-.02-.2-.07-.4-.13-.59-.16-.43-.42-.76-.78-1-.36-.23-.77-.35-1.24-.35-.55,0-1.08.14-1.61.42-.53.28-.97.63-1.32,1.05-.38.45-.66.84-.84,1.18-.17.34-.29.69-.32,1.06-.04.37-.06.85-.06,1.44v4.23c0,.18,0,.43-.01.75s.03.61.12.87.27.38.54.38c.16,0,.31,0,.46-.02.14-.02.3-.02.46-.02.14,0,.21.08.21.24,0,.08-.01.16-.04.23-.02.07-.08.11-.18.11-.55,0-1.1-.01-1.67-.04-.57-.02-1.13-.04-1.69-.04-.51,0-1.03.02-1.56.07-.06,0-.12,0-.17.01s-.1.01-.17.01c-.08,0-.14-.04-.18-.13-.04-.09-.06-.16-.06-.23,0-.18.09-.26.26-.26.1,0,.19,0,.29.01.1,0,.2.01.31.01.22,0,.46-.04.71-.11.25-.07.38-.25.4-.54.03-.53.04-1.06.04-1.59-.01-.53-.01-1.05-.01-1.56,0-.99,0-1.98.01-2.96,0-.98.01-1.95.01-2.93s0-2.05-.02-3.06c-.02-1.02-.03-2.04-.05-3.06,0-.18-.03-.37-.1-.59s-.21-.32-.43-.32-.46.02-.7.05c-.24.03-.48.05-.72.05-.14,0-.21-.06-.21-.19,0-.14.07-.24.21-.29.32-.08.64-.14.95-.19.31-.05.62-.1.93-.17.27-.06.6-.16.98-.28.38-.12.69-.18.95-.18.09,0,.15.03.17.08.02.06.02.12.02.2v3.94c0,1.31-.02,2.63-.05,3.94.35-.37.78-.74,1.28-1.1.51-.37,1.05-.68,1.62-.93s1.12-.37,1.63-.37c1.04,0,1.86.15,2.45.46.59.31,1.01.77,1.25,1.41.24.63.36,1.45.36,2.46,0,1.2,0,2.4-.01,3.59,0,1.19-.01,2.39-.01,3.59,0,.26.07.44.2.54.13.1.33.16.59.16.11,0,.22,0,.33-.02.1-.02.21-.02.33-.02.08,0,.15.04.21.11s.1.15.1.23Z"/>
    <path class="cls-2" d="M400.36,273.21c0,1.2-.29,2.28-.86,3.25-.57.96-1.34,1.72-2.31,2.28-.97.56-2.06.84-3.26.84s-2.23-.28-3.17-.85c-.95-.57-1.7-1.33-2.26-2.28-.56-.95-.84-2.01-.84-3.18s.27-2.31.82-3.33c.54-1.02,1.29-1.84,2.25-2.46s2.06-.94,3.3-.94c1.35,0,2.49.29,3.44.85.94.57,1.66,1.35,2.15,2.36s.73,2.16.73,3.47ZM397.89,273.13c0-.69-.05-1.38-.15-2.08s-.3-1.34-.58-1.93c-.28-.59-.69-1.07-1.21-1.43-.53-.36-1.22-.54-2.07-.54-.8,0-1.45.19-1.96.58-.5.38-.9.88-1.18,1.49-.28.61-.47,1.27-.58,1.97-.1.71-.16,1.37-.16,2,0,.69.05,1.38.16,2.07s.3,1.31.59,1.86.7,1,1.24,1.33c.54.34,1.23.5,2.08.5s1.5-.18,2.01-.53c.51-.35.89-.82,1.15-1.39s.44-1.21.53-1.89c.09-.68.13-1.35.13-2.01Z"/>
    <path class="cls-2" d="M415.27,273.21c0,1.2-.29,2.28-.86,3.25-.57.96-1.34,1.72-2.31,2.28-.97.56-2.06.84-3.26.84s-2.23-.28-3.17-.85c-.95-.57-1.7-1.33-2.26-2.28-.56-.95-.84-2.01-.84-3.18s.27-2.31.82-3.33c.54-1.02,1.29-1.84,2.25-2.46s2.06-.94,3.3-.94c1.35,0,2.49.29,3.44.85.94.57,1.66,1.35,2.15,2.36s.73,2.16.73,3.47ZM412.79,273.13c0-.69-.05-1.38-.15-2.08s-.3-1.34-.58-1.93c-.28-.59-.69-1.07-1.21-1.43-.53-.36-1.22-.54-2.07-.54-.8,0-1.45.19-1.96.58-.5.38-.9.88-1.18,1.49-.28.61-.47,1.27-.58,1.97-.1.71-.16,1.37-.16,2,0,.69.05,1.38.16,2.07s.3,1.31.59,1.86.7,1,1.24,1.33c.54.34,1.23.5,2.08.5s1.5-.18,2.01-.53c.51-.35.89-.82,1.15-1.39s.44-1.21.53-1.89c.09-.68.13-1.35.13-2.01Z"/>
    <path class="cls-2" d="M423.94,279.17c0,.08-.02.16-.06.23s-.11.11-.2.11c-.5,0-1-.01-1.51-.04-.51-.03-1.03-.04-1.54-.04h-.84c-.34,0-.67.01-1.01.04-.34.02-.67.04-1.01.04-.06,0-.11-.03-.13-.08-.03-.06-.04-.11-.04-.16v-.14s0-.1.02-.14c.03-.06.12-.1.27-.11.15,0,.32,0,.48,0,.17,0,.27.01.33.01.22,0,.42-.05.6-.16.17-.1.26-.28.26-.54,0-1.23,0-2.46.02-3.69.01-1.23.02-2.45.02-3.67s0-2.5-.01-3.76c0-1.26-.01-2.51-.01-3.76,0-.11-.01-.24-.02-.37-.02-.14-.07-.24-.14-.33-.07-.08-.13-.12-.19-.13-.06,0-.14-.01-.24-.01-.29,0-.57.05-.86.14s-.56.14-.83.14c-.18,0-.26-.1-.26-.31,0-.13.1-.22.3-.26.2-.05.36-.08.47-.1.56-.13,1.17-.27,1.83-.43.66-.16,1.25-.35,1.78-.55.03,0,.06,0,.09-.02.03-.02.06-.03.07-.03.09,0,.15.03.18.1.03.06.04.14.04.22,0,.45,0,.89-.01,1.33-.01.44-.01.89-.01,1.33v6.73c0,1.23,0,2.47.02,3.71s.02,2.48.02,3.71c0,.26.11.44.33.54.22.11.43.16.64.16.18,0,.35,0,.51-.03.16-.02.32-.02.48-.02.08,0,.13.04.14.13.02.09.02.16.02.2Z"/>
  </g>
</svg>